<mxfile host="app.diagrams.net" agent="Mozilla/5.0 (Windows NT 10.0; Win64; x64) AppleWebKit/537.36 (KHTML, like Gecko) Chrome/136.0.0.0 Safari/537.36" version="27.0.6">
  <diagram name="Page-1" id="hwns_kXdqPMmRWU0lM_x">
    <mxGraphModel dx="1042" dy="562" grid="1" gridSize="10" guides="1" tooltips="1" connect="1" arrows="1" fold="1" page="1" pageScale="1" pageWidth="850" pageHeight="1100" math="0" shadow="0">
      <root>
        <mxCell id="0" />
        <mxCell id="1" parent="0" />
        <mxCell id="31L2q3cZnmJjne0RzHGk-4" value="" style="edgeStyle=orthogonalEdgeStyle;rounded=0;orthogonalLoop=1;jettySize=auto;html=1;" parent="1" source="31L2q3cZnmJjne0RzHGk-1" target="31L2q3cZnmJjne0RzHGk-3" edge="1">
          <mxGeometry relative="1" as="geometry" />
        </mxCell>
        <mxCell id="31L2q3cZnmJjne0RzHGk-1" value="Raw Metadata Dataset" style="verticalLabelPosition=bottom;aspect=fixed;html=1;shape=mxgraph.salesforce.data2;" parent="1" vertex="1">
          <mxGeometry x="130" y="80" width="60" height="60" as="geometry" />
        </mxCell>
        <mxCell id="mevsjaY-M4el7qakor53-25" value="" style="edgeStyle=orthogonalEdgeStyle;rounded=0;orthogonalLoop=1;jettySize=auto;html=1;" edge="1" parent="1" source="31L2q3cZnmJjne0RzHGk-2" target="mevsjaY-M4el7qakor53-17">
          <mxGeometry relative="1" as="geometry" />
        </mxCell>
        <mxCell id="31L2q3cZnmJjne0RzHGk-2" value="Raw Audio Dataset" style="html=1;whiteSpace=wrap;strokeColor=none;fillColor=#0079D6;labelPosition=center;verticalLabelPosition=middle;verticalAlign=top;align=center;fontSize=12;outlineConnect=0;spacingTop=-6;fontColor=#FFFFFF;sketch=0;shape=mxgraph.sitemap.audio;" parent="1" vertex="1">
          <mxGeometry x="60" y="400" width="120" height="70" as="geometry" />
        </mxCell>
        <mxCell id="mevsjaY-M4el7qakor53-2" value="" style="edgeStyle=orthogonalEdgeStyle;rounded=0;orthogonalLoop=1;jettySize=auto;html=1;" edge="1" parent="1" source="31L2q3cZnmJjne0RzHGk-3" target="mevsjaY-M4el7qakor53-1">
          <mxGeometry relative="1" as="geometry" />
        </mxCell>
        <mxCell id="31L2q3cZnmJjne0RzHGk-3" value="Cleaning &amp;amp; Manipulation Raw Metadata Process" style="whiteSpace=wrap;html=1;" parent="1" vertex="1">
          <mxGeometry x="260" y="80" width="120" height="60" as="geometry" />
        </mxCell>
        <mxCell id="mevsjaY-M4el7qakor53-14" style="edgeStyle=orthogonalEdgeStyle;rounded=0;orthogonalLoop=1;jettySize=auto;html=1;entryX=0;entryY=0.25;entryDx=0;entryDy=0;" edge="1" parent="1" source="mevsjaY-M4el7qakor53-1" target="mevsjaY-M4el7qakor53-8">
          <mxGeometry relative="1" as="geometry" />
        </mxCell>
        <mxCell id="mevsjaY-M4el7qakor53-1" value="Metadata Dataset&lt;div&gt;with Higher Class Name&lt;/div&gt;" style="verticalLabelPosition=bottom;aspect=fixed;html=1;shape=mxgraph.salesforce.data2;" vertex="1" parent="1">
          <mxGeometry x="430" y="80" width="60" height="60" as="geometry" />
        </mxCell>
        <mxCell id="mevsjaY-M4el7qakor53-11" value="" style="edgeStyle=orthogonalEdgeStyle;rounded=0;orthogonalLoop=1;jettySize=auto;html=1;" edge="1" parent="1" source="mevsjaY-M4el7qakor53-8" target="mevsjaY-M4el7qakor53-10">
          <mxGeometry relative="1" as="geometry" />
        </mxCell>
        <mxCell id="mevsjaY-M4el7qakor53-8" value="Higher Classification" style="shape=image;verticalLabelPosition=bottom;labelBackgroundColor=default;verticalAlign=top;aspect=fixed;imageAspect=0;image=data:image/png,iVBORw0KGgoAAAANSUhEUgAAASEAAACuCAMAAABOUkuQAAABVlBMVEX/////zAAAAAD/zgD6+vr5+fn29vbJyclDQ0P/0ADx8fHb29uQkJDo6Oju7u7z8/NoaGjQ0NBycnKysrJhYWGgoKDh4eGIiIh+fn7CwsK6urp5eXnW1taWlpZsbGzExMSrq6ulpaVYWFhiYmL4xgBLS0sYGBgrKys+Pj5TU1MNDQ01NTWjgQDxwQDqugDJnwC1kAAnJyceHh7AmAB7YgDV0seHbADhswCohACWdwBfY2uspIHWqwBwalVzWgCAZwBtYTBmUgbl4tVnWzKBhY2RcQCLioMkKTXPybO/uJuHg3Ht582AfG2VkX5kUxSBdD69u691aD1uZkernm1iX1V7aCWGbx6ppZZUWGJeRwBqZVBMRi/CoyteVjvbtR1rWhdGPBKTh10lIQ96c1ZYTzNWUUH/++pbTR4uJwCalH3HvJCDeFCVgzfOrCVNSTd8bS+bhSuxlzCNmKhsAAAbd0lEQVR4nO1dWWPTSLYuy1psa7G2qtJuSbbjKI6zQpbuAAk0GZoJNMmwTHcPMHNp6LvM3O77/19uleRdchY6BMP4eyCJ7RKqo6qzfqcMwAILLLDAAgsssMACCyywwAILLLDAAgsssMACCyywwAILLLDAAl8kajL5R5E/921cB9gZr3MfcS3HAWzkQSoXQeIBMPyJqyt+7apXrMv87DfZWfd+rTDw9CscSn8k4tUvJvmADRp2DcgCtHgkSJgFgsYCJAv0onJCZIcaIkAKnbqgkb+QB7zGLMGxkanHTvZ7HY2/I1LhhNJNiMhwge3gCDiGGwHFYEXHX7LoGxUioYbrs5oNZKcmYQUYBrxgYfm67cSNWKw3sep6iRRjNtRVB8SxrpLJyLEMuMhv1yEGMIJurNXbpmHrEZpxPa2iALQshwof1aQtSTOwVAeRUg/DLV0BAJIHADyMUSgDQ+ahheTQb1yzgKiEcNuoKGQibU82ORs7iUDfoBISRFUQEhBBCHHENZvaBRfzE4yXiYS8JnCs0AIRrschdkFsyCbKJARkFAuiWWtqcWhJtdgGTtObdb2ILHCWilxpK47pwSQ0Q5AgOREShx1ISPN93VFM2cAQC91IuVbxgExCEDQ91wCWITe5BtaCdNFTCYlOHPKxpwtNS7d41bnoYpLP1gM7Fh0d2JbvkxnKFQwdYGo1VaQSUoBsRe0G72JLrEhQqBHp8FEszLge1FMJmWKtXRNcDvogdImElESkAs8khBwXG5aBWSuw4oZev07hpKASMoDquQ5wHSIhA2tq+r9UEFBMQY8ATDCKQySz6qyJDEH0EBfYiYgqmqU7iadavO7LCog1xaQSamuynXiJAQzGZtVIUWqxR1QR2eTFELoyUJZRLCIiIZ2FkK6qRBTbmYTSJWYZECNTtYEuiUhwz1HsH4lQB1ZIpuDqYSIrsVSxUJzecEcKw0oUuxxiHACJuuDNC7e4Y1Nb5susr/qGLOm+AxQ3gAAinhq4mhWoEXnVZz2iYEQ3MOjLdiDNcgp4HRuqBAI3WFbE2IliutxUS60glZpK2I5CpGM94a0KC5wkchr69UtIJpZFBh7n+g5RB54jItaz6RuC42ieoQmsnCDANgwNeFe21TNhSJf7XN0OBWIKHc9jgUbsozP4CzlkocuO49SQozU4sqOJXjcE5SMM8GXhz9xCgn/9/xv6KFcyNGa8wUmfUDIDKDOXZ/36ls4fRH2WGmaVG/EdF1hggQUWWODfG/z3j9Vv1MePrpZW+vO3J+o3wZPbX7+xlp8c7Wzvru1u33v65PLu0/0fjh6u764dbNx6YFx/tDBXeHa6ulYqlcvlUml3/+z25QZ9+PbtRq8/6mDn5Aa84s+HZ2/X03mW6HxL678+u8wg7i+3dqvZoFK52tq4MyuN9hVA+3G3P9NstgcPLrMevr27Vh0bVd54/tVutPrZ+thUCaobdy7WvLePxsVKRFTav2S8/+Xh1c6kgErl1r1ZQfgIP2zkRj2YmY39ssHfOZiaa6l8cDLr046X7aU/H/XK06M2ZqUav3BoL/Jz7f02S+0aHd2mufbvH04PInJ9/HVqonB1eqpEp+zMqoqwKsMkkQKOt/MSah1ee51iLgA3cnMtVfd9TSiE5i8xDLOCg4OCUUdfRRE7BzitculcV7/xpUL4bSKgJdf+d5CQpmNoI4WHe7mplkoPZ2W9lQqzLIkcOF7PS6h1+HVJiPPpdum2k5etvKZ+MctnhHEkU2fp1WpeD+2ezE1G/AKQgNv8q/n4ooBbMYmImIpzZy0nod1gllUS+2+go9L0qOr6JyiqfArc/uHHh+trrbXtW0/hzGeKBBjELlG6ugL8vWnfr7R/4VzZ1+vTo8qnF9Z05wEsDbjLGXZXfyow2lzNi1xLMjTOYToRWRLo9dQiqh78rDqzFlEdaYZvBTG+NeVGlf/2CWru1w/uL3eHATdZC+uvp0TEI1vSdSim9Sk3I4kAeGtCE1V7LxwZY61wk/JSd4va+1g5Xp0c9eaXLyK4/34iGChX138au22+4VsudlB/6mxI3+M0aLb3R6PK5d5duscall9omepGTAS0jID8fK81NurNg+6XEJbdfzsVY1X3rEweNdGwEtfxJr1eDoXxEtNF+O1BOV165Wpp++/tlBpWd8ywyEeWrSVmxQEIx/q9tXRUuVxt/e29Ybe/AD30j9VcwP3CJgbIkFTdF3LbRkutGRPxVqLubK+VqqXdjZdqgiyYvs35qjGdtlZ81VEZ38MMA41v3u+v94h43mycumQ9esmFBKXPjT8f5g33dgB113fEIq2CHGrOurDNwFpDevfgwYN3UKg5EtLD7AOibwnjMlKMwFBAvBx0iStlrkDZOT4jo04iLVXsnnoRDfBz4/udvPO3+7Mv1mZ6Ro1kheluMSsGWTGKLMv0k6wloGZ/w3CaO6Jl8LYrUdXV7K5QZ5NhyJLhB6NSINef76rH8UZpGuXWy3NSqo1YW6b7bHNCg2iY8+KBhucMPcrcKs91s4+JXrRJZcTk9Y7iSnOdAcEFwVJ1ZiIDAKPpaZ3uJsO0J1Wy5ABbHVoyBaoGD5CkNgZbqK53U7kWyL6OrXlOgXx3NQnBgNJlPddimpN7AzVlELqjmcq+bqnhUMXwgWQEW5tMpdAdgPocx6/H2zkBlVovZ7gpvJ/KgI2gvIyntEeIAfBHL7J2u6IOL8P6mAda264khT40a6jzWzp7tV+gqV87hfZFxm76rD1LBr499aZC5MFLfa3Lahh7NUOH2dpgIxpdhD5ZgjNuww4u4m1/NsiHuZRz9aAdNEOUE5Ls4uw1t0HcyZx2dSzyapC6N7KkN6iolKiZlp5tk7YuBDJQZlJrhfa1E+uvC49zJZrSDwZAvhlAbUJIKM6cwpmtFTqZoxI3QC00jcEnZExeFWKR7Dd4fllDS8I/OpVPBO/tWmHAzXuhpUrCMBnixU42bXFkstjauGfj0Tc8VXKjcb2rYTUWgGmPiOHUi1Ly+khU59Uxiu5NJLaq//qPQSDAyYalQyE1UELc3wU8HmggRTg+PTw8PPMHYpTIKhHUzlQcIS/HEJmVgUMpO4/pqHcwlwiQ9Tl1jGqYhOmj7MebU10fMyxiiF0iAqffAVNL1Q0Fa9/Z2dhtlVq7Gzsn2ZtIb5CQwwgmvJsaUdeh1WW66cKqPzvd3yajegd7L6xp+1Wz8Hw6Rrx166DUD9Nbez8bvGOOe748CcWWuzC7d0Nys3mx0tt1Moii2lp/mno+Nb1rUJs13mjBSS5ZKw5xMWl+RDm5tTsY1dt4PR21cn1jOX+wn+9skDC99WbvVKexg1CZNCxQD3GAadOAx2Q9Mix+2Bul3aqtu0SLG7qUuTUSHql4P+CBh9OgzAbKu9Xy0C6Uq7uHucAemnOaU1ME/87rX16fhB6v0T43LzZGWqIm0ahAbviB5RhLDG0YA+FkjrHcewFdH5HAgy4fzoWDsSHR3nyoLi9tLjEd7/FkjrG8m+fUOPG8OkZsvVbLfJzUKiM9GqwDxZKyX1lFsDa3SEQmAPQgn6em3A9ed7IhfSKIQxuoyLVxhOzIP8nlqdfzBZKGOfdJtbpOnyJy/Uwuynh2Itqi4WfHKah1rKbrRoxTfYWCdJuK7WxBaFnC/jRX6yi9yIvDU6fd9bmDQPcZUDCmzxcF4UhAGtEnS5vd5eTngnrZ81SiONtgHl08KOvobWhWKq/7BfWybTj9vxO5BuEnnuEfRpgFoD6RlNcee6BKDBuCh2pAKKq5ZuEuMjPVojUVpZ92NFY69sya67uC+pyszjs1jbcyGxPpoTquN+HgxsNz6vZ98QLbcvthBuoyTCVERXX7culpkXmvW/58+o5DeGZ636y+Mh5LacMszgzuB6bQO276E3e2LIn+lNQlauy70jeX537UsDWnjtEAoUWVSuiOtzRz+tB7KeYPQU8j8Ix2g/5wdSugf2thW6fqy7TdK7BjOH9efcc+UmlQPaQtj8QycpWNPAetNOSgsZiaekGtKUFq83VYYTqWB67IQYMJ9R3nd7PJgYBTz1g0o35In8jEEAeWH9qeUcRjPBx4w2JCJEtd89SWOaqUGOl6KOQxnsyMxGziO7Lh/BZlw82+n4iCLOJOtbeR+kNM8n43z4V1h2N9X8xShijR6oE2KGl/yHNhqxsVK/RmFMw802bNubVqoh6H/V8VizpGjs6mzjFVuqZo5PnUd0fHrShJs+8j2IE0eJnj+Xd5PvWZ3fAt3ReUIil5OuxuzmmcJsahGAwWODEsikz+kgWo05oO0aG1n6Ysd3njOY3LMnDxMJiAWzZgkSeEvpssH7+d5uSv0iWieJGuYjuf9gV2hWHmZRF9eOTj7/Cr+9lfWkI2iTCq95CYFdpYtQyZ72S37P060aFRPXiNyDLrnzUk4WCQG5BineWkdGsyJvvqVm9i1Pawr0M2cKzDyfXSsJbJis3ySuzE/d087v/j6b2N9YP1vbtnlJdgmOnykQYRASsHzLIvUDKi3aX2iUN+89f1sbTb+n+G5OWaodL8ELSAEGRZViFAvgtYj7Jj2jKon4xRlaqtjefjob2i+WbiN+TBc6kpfoXSjnwiv/8a3N/hs89i3b4/HLSKtWjTF+znGJXMoUYh1itYzVZFQ6OCcDcZu3G2vzYgru3f8TNvksijERInge1LN7CzHKPbYToCEFz11eGQ7nZwL5dkpLlx3QozSoVhAF6QKswyevZgdXfUlHbJVrbrxH8fjVrFyIN9P/TVBB0pDtWjOAJelmdmAYKUHl3hgeyfZj2KL0+hQrylbNVoapdqaaTSHWPrZEXKlQSihIGavsVAID4+3E97FF/eKexRZJFtNfUI1YHGQHrCk2A9fjpxfw9ufKt9/+NueaRAy+WNO30XhfWSdoAFhfUCeVjrkMlyYDL9ycrOcaAGxzbl7/FSFo95qu/SOmJENodCk9tZraPdDsiO2RLpDn11olJq0kxKKac0sKlDZ4VJ6/nO03EKWLm0cXbDyez7h5NZm3I1a/pCUVOFJnWC+P5ua4bpALGywnTyNphPE4v12Ab1KDZYjsT4EQYyVm0gmFo71dX6palCrBdSnpKJgDLVylYu7x9fw7SvgL/sTzspvUNbDPWmT9SBRtzjdDlQKDotJdYlyWeKmMF11QD9QEOR9IZjeYEHs5prwxRZ2FliwivcV2YBN71XufsrPb3RLOSHw91cALFdsaCWqZXIYj19sGBkjBXFklihUxgLoMDBcFC3l1yzbbqDun3oCrqRbF2BvqBYtBmku+w+yN/fxo3S1L+/V8BsuDOcCqcb1qj5kPd13eeJsi4ujmrL+vB3ttFlmiOJ4C0HWO0r3JcXGYKIZMUpur//uUlN9CSfDCu3xlo0xMq48lC6y+Qte0YkYJjBMGUh+91KJRxYK0VPIMBXkdAAUdH9nceRu3YUcdDKYwwrVAlGElKCyCBqWw0LL+WoyOh7igoMdCzGbp+DVnd93oLmVXbZAFI+ZVIq37vJiP+76fpDaZKDZoVWOPgdmcRcCabQTYpWuUYLaZCm3lhDD1ETAQOLlqtRpWuJHtxaYa7Q1DrwBQrv70YlVPCMyCoeGgsn4NGA/NQnBAvEchf0RYtpOpLFsCZQLiz0U9IVa1sSgpaipizG+PKtUpoaSKEg14vWUOneTe6yQg7az3rUSLM6iEZoTqaJxNSSIxt3hjTP+7cdx7md+riynklNUU2scSmdip6gypEYZbmigXaSMj3ps/9wv+E49u0LlC0HGWZlqVNp7+dKSOW1mU3HnwL3izhorhBi4vZqvJ/ui5RvjzL2vBCnvl9Ifr39+O2th6sPbx0+uQ34PiefWLuKQXmL2YaiyVyvjXU7YQyRcvKJ8Xx3994+GXXHP19GqEn/n7Z9mHuC1RtusD7Zzm30f4a0BC2GbrfrC2IdKIkGxEEltO5J7SWmwsmPj7bXWuVqubW2ffQkIzDWjTisiaYA7H6CyNMVsS0QR2qF8q9FS390ene916rSUXu/hjMmWhNtP1CJQ7QiKeAkp4iq++FNCGYI4e7UIqr+a0Ayq6uRIbk6dkLdCVLVxNspc0Hz41dnq60sniT/9vb/l0bcDStNonmm5g4UmS8RTxtoOg12yVW/PdooDUZVd+8d50XEIgO7lm+IXMSkMbDw23Sx/+D5zZZB2OP98vgtVN/8faCHpZTyQx6ovtWB2bHaat/B1n7ZHtMP5dLeOwVh3FfpdmeYkfW6mPaXpTtT5R+9Xa+ORlVbU8d+1OUGdUltlLIEzbR6yyF9UhOVe0c3zQmV9bGmL6oGzX5+SDD7z4p14nbbwtAhJopJy0Psk9XJ227tn7hDinF90+rTFHlsYtr/afiWHldenW5PTfbusNZU1wwf69gQ631/XTFqgPNCvRtP3d+9m2+NVdSd3qBVrPrmAeSdhC5vVh08KyHxBFX0HKmp0kYxnwPC0ZT+LK89HRX4oe/3F4fkyu7At+KVfzycskvlXXoCOk2jWHHgO94k/dOTTJppcWr6Tq/av7/ywdPPwQdl4fu9AyqktfV/pokyL45YmkzNYNPaF0yLPXKQJpy9vPosbw9zEmLMsTh90EasAEEdVoOe5hkj+6HoSGaMG3lurJymqRmVA2xE769aLa2tv/xc7CJkPD49Onr7TnIyEyy7vt3MNA4bppuurtM1Ymf8oeaDfEVxbZDY4rBDWUcGJZoj+mfcDLOK4q3SNKrry7SRbUbaSDQHzUTIOJ64v8+BtOlrdBgtK2318/iw33LhkaBCjGMXEkUaFriZrUGoIugpHT/QtKyvQ65sMss02fQkX+0vrz2Y7fzVLN9l+h2l0/c3BzDiLNiAwWAKPuaV/hOM9grCyX0bsASKnv4EWjN20hcApCWLLbdRxGwov51puVHgg2hpbjti5KbnEU+GheZwBtygT3MWO+ZPFYruUiXDClNpp78sb6W9d9YV2DGAWlJa9M99b8bcgKoRRZfw+AnraMjkLVxDGcNKGZCMcOgMKvkkfmhDBVhFa6iQYQXSTj9w3gnanxt2Ss2UK90JyxEOkmnObD0kheknOF9iWT/j0xidbsq1L9RDxYULXtLndnulkFPtXMcYBuMiqls4PXLJM2baMrHfshC6NXqBlE9reEIq8NsFtuzguMiO0YT4J5/kHwJN7gDWsnggtMdp86jDLBFstpMCf4iqDM7NvEw7S8fyZpgNlNJA5tecP1T9vajdHukFDNm5QkoXrrlpiVBU4ZgzZ3doJX3LEd5Oe8e9H2mptpHtQ03tayyUFtxYXkg0G2J1MgKkCy8pUENCMO+nFCh0a2XFMUC5MWNtuuLyJsMskXWCVycmS8+eNAID6X3G8DCLK5IAhpfaabd91/tpMmFY7uUbO2ijw/zyzvqgX4Sh6MPwh436VR3ZcfWwwqTaW34+FdsTvSPDtpp+Th0LvoVYBMhfzhr0tbODsdi+3Po9b8zr807xJBBdhXhrcGRnWdt0OF7wLV/gObefoxbvrPaGJ+f29tOkiKi62COu8ETC3jEVwPsrzArVLY2zjVY2qlwuv/ktr4+Jjp77E4lYywZInaxKiHEQWA36bHkp6GtRGR8e9Eo05u6tH0ppil4KuUYArSnWGHQFF1eYzazTI7h30KKjWr3/ex/mhCEGc3sKyIf7z4zQeKakLc/ywARlqNlSEA+OVajX9YEDILg/vVzdW3353MrUjqdSC9/cDCcniTpbDdBOjL4zZehn+2TUDyrOR2RCPK9NLx++Pb21v7ext3/4ONTrNNwYoq7hwBfqXBgMXDhvFIjIgmM4wiDPlooudLVo/Lwv2Q8Msu2INvIH6xI1yCgtXxjiotnfavaZ8eiULn2aROttH7na2HeWIcN1+wmH0fONqJXLR9k2zSdpNDIRLdyfat0ISLgh6wbKzr3gzinj1CV9Xt3ER0cj9Vld2++E/ddrNnb9UUezF0TZ0uBcEr0b0zpEodxZL7PzaR2RfFBwpVRUYvo1aMQPtS0wC8iS5ldAB+MctNJqWoHgPaha9oThla2+MhJdWexMT4ee+4GGHNga8Y7I/hzIN6Xoa4nWjGcpYs+M5jVKrZ9uT3G87kWgHgYqzPklHOwfMeRgzEy1oyJi1Ov6mAJDS4w62op2rIm4Ullpz1gnwhwfiPbtznQAsfaL3oReoVtCPCMW2KEdrzBToRM2SGAbDUVCicNja4gsMTMt1nYLFREP59iP/nA6fVx5ufRw9nFAGgnTJHpaFxNM6GrBqgNp2DY3rYco/HbaUl7UCT3f3WSPbuXr4rsns/1aGUuQoS117YnP6DYIh9k2NG7L0vO+eBy0s3PQChweWb369wbfIF4VcLx6v52TvuKkJaZLT6nwBv5Q6mZydtxfBzIMJv0h+tdyl5a+NpcpJWLKH9Ka4bz60Sku4qBNQ/RNshIw0hlDc892iHe8c2bZqqLFmVT5SJ0iLCBMXMmkE8Ithomw9Ew/fLi6t//yuZSpJCOZVz+6j0KO18OZelPGaa/Fkgai/3273qNV2lZv/cgVMs4111ALDj71LGmZSeSa1NWFn25l0Vyrt/ELESU7zzo6Ay7goPWOsIDqXGFxipUb0NxiApTG9kPuRzc1bR7GhfOVVSJVlwPo5HAstt99eYwwnmMdneFVwdcmrJ1hS1UtKCB5SmXzqdTqoqG/n8oPndD8kGsXahQ7Y2VBcPtwMj+086d57xonuP0iX7Y4IKablW1oqYHrhw005vgNHvlxUY4xn81IUQ8l16wQTW1M5Riru0/nPd9KwL7LK6LfB1E4K3t2JAWJKhmeTGkrSqeT6uHG9AEV5bUfz80NcgrytJNpTmK1ME89b7CnHaLqm+eTji/LIcd3dVcKbVFnGFopKuJ+zCyPDjdSAfdj9eJvG/rs4B/vTW6Y1g+Fd614dihh6vd1oHB6Dvcjhwhm+/TRpetlcwbx+XppIr0uzbxp1kv5dp3kPO5HDtpmF9Ojlq9Qc50zoPer9GyyUpYfevHd7JCDj5mlRDJQ0akW5ZnfaAJoH1RgcPgqdfv5gnJ8uL1Lib+93d+fG+dwdBrQSwmf53E/8mhnRE/zr7k+qC/nW3FYzb/zcmdn59SKLsV2P48/VADaKqaGilUU4HwZa4hC9jRBEy9ZqzqH+1EAbbNjzdJDvS9CD10d4pVsGfTFL9uWfQyu5A8NF2YRF/YLcKo/Clrep/714hj9VY5P/UX41B8F9jjHyb8EU145m+bkv/1al1AB9+NS30N2+3Cyr+Ph/BI5/zjQ84neoOByPXHPHkz0Bs0/z+OPQD4+Wh/0lz2VLpuKF+/c7ecY1/Z+mdVf9tXAw2e02/DeHekqiVTHOtwho14+L/6eqq8MsuA4Q+7HZcEi2ueqfZ2e4gILLLDAAgsssMACCyywwAILLLDAAgt86fh/+mLEky2UcgQAAAAASUVORK5CYII=;clipPath=inset(22.99% 16.78% 7.47% 13.32%);" vertex="1" parent="1">
          <mxGeometry x="760" y="150" width="140" height="83.86138613861387" as="geometry" />
        </mxCell>
        <mxCell id="mevsjaY-M4el7qakor53-10" value="Inside Class Classification" style="shape=image;verticalLabelPosition=bottom;labelBackgroundColor=default;verticalAlign=top;aspect=fixed;imageAspect=0;image=data:image/png,iVBORw0KGgoAAAANSUhEUgAAASEAAACuCAMAAABOUkuQAAABVlBMVEX/////zAAAAAD/zgD6+vr5+fn29vbJyclDQ0P/0ADx8fHb29uQkJDo6Oju7u7z8/NoaGjQ0NBycnKysrJhYWGgoKDh4eGIiIh+fn7CwsK6urp5eXnW1taWlpZsbGzExMSrq6ulpaVYWFhiYmL4xgBLS0sYGBgrKys+Pj5TU1MNDQ01NTWjgQDxwQDqugDJnwC1kAAnJyceHh7AmAB7YgDV0seHbADhswCohACWdwBfY2uspIHWqwBwalVzWgCAZwBtYTBmUgbl4tVnWzKBhY2RcQCLioMkKTXPybO/uJuHg3Ht582AfG2VkX5kUxSBdD69u691aD1uZkernm1iX1V7aCWGbx6ppZZUWGJeRwBqZVBMRi/CoyteVjvbtR1rWhdGPBKTh10lIQ96c1ZYTzNWUUH/++pbTR4uJwCalH3HvJCDeFCVgzfOrCVNSTd8bS+bhSuxlzCNmKhsAAAbd0lEQVR4nO1dWWPTSLYuy1psa7G2qtJuSbbjKI6zQpbuAAk0GZoJNMmwTHcPMHNp6LvM3O77/19uleRdchY6BMP4eyCJ7RKqo6qzfqcMwAILLLDAAgsssMACCyywwAILLLDAAgsssMACCyywwAILLLDAAl8kajL5R5E/921cB9gZr3MfcS3HAWzkQSoXQeIBMPyJqyt+7apXrMv87DfZWfd+rTDw9CscSn8k4tUvJvmADRp2DcgCtHgkSJgFgsYCJAv0onJCZIcaIkAKnbqgkb+QB7zGLMGxkanHTvZ7HY2/I1LhhNJNiMhwge3gCDiGGwHFYEXHX7LoGxUioYbrs5oNZKcmYQUYBrxgYfm67cSNWKw3sep6iRRjNtRVB8SxrpLJyLEMuMhv1yEGMIJurNXbpmHrEZpxPa2iALQshwof1aQtSTOwVAeRUg/DLV0BAJIHADyMUSgDQ+ahheTQb1yzgKiEcNuoKGQibU82ORs7iUDfoBISRFUQEhBBCHHENZvaBRfzE4yXiYS8JnCs0AIRrschdkFsyCbKJARkFAuiWWtqcWhJtdgGTtObdb2ILHCWilxpK47pwSQ0Q5AgOREShx1ISPN93VFM2cAQC91IuVbxgExCEDQ91wCWITe5BtaCdNFTCYlOHPKxpwtNS7d41bnoYpLP1gM7Fh0d2JbvkxnKFQwdYGo1VaQSUoBsRe0G72JLrEhQqBHp8FEszLge1FMJmWKtXRNcDvogdImElESkAs8khBwXG5aBWSuw4oZev07hpKASMoDquQ5wHSIhA2tq+r9UEFBMQY8ATDCKQySz6qyJDEH0EBfYiYgqmqU7iadavO7LCog1xaQSamuynXiJAQzGZtVIUWqxR1QR2eTFELoyUJZRLCIiIZ2FkK6qRBTbmYTSJWYZECNTtYEuiUhwz1HsH4lQB1ZIpuDqYSIrsVSxUJzecEcKw0oUuxxiHACJuuDNC7e4Y1Nb5susr/qGLOm+AxQ3gAAinhq4mhWoEXnVZz2iYEQ3MOjLdiDNcgp4HRuqBAI3WFbE2IliutxUS60glZpK2I5CpGM94a0KC5wkchr69UtIJpZFBh7n+g5RB54jItaz6RuC42ieoQmsnCDANgwNeFe21TNhSJf7XN0OBWIKHc9jgUbsozP4CzlkocuO49SQozU4sqOJXjcE5SMM8GXhz9xCgn/9/xv6KFcyNGa8wUmfUDIDKDOXZ/36ls4fRH2WGmaVG/EdF1hggQUWWODfG/z3j9Vv1MePrpZW+vO3J+o3wZPbX7+xlp8c7Wzvru1u33v65PLu0/0fjh6u764dbNx6YFx/tDBXeHa6ulYqlcvlUml3/+z25QZ9+PbtRq8/6mDn5Aa84s+HZ2/X03mW6HxL678+u8wg7i+3dqvZoFK52tq4MyuN9hVA+3G3P9NstgcPLrMevr27Vh0bVd54/tVutPrZ+thUCaobdy7WvLePxsVKRFTav2S8/+Xh1c6kgErl1r1ZQfgIP2zkRj2YmY39ssHfOZiaa6l8cDLr046X7aU/H/XK06M2ZqUav3BoL/Jz7f02S+0aHd2mufbvH04PInJ9/HVqonB1eqpEp+zMqoqwKsMkkQKOt/MSah1ee51iLgA3cnMtVfd9TSiE5i8xDLOCg4OCUUdfRRE7BzitculcV7/xpUL4bSKgJdf+d5CQpmNoI4WHe7mplkoPZ2W9lQqzLIkcOF7PS6h1+HVJiPPpdum2k5etvKZ+MctnhHEkU2fp1WpeD+2ezE1G/AKQgNv8q/n4ooBbMYmImIpzZy0nod1gllUS+2+go9L0qOr6JyiqfArc/uHHh+trrbXtW0/hzGeKBBjELlG6ugL8vWnfr7R/4VzZ1+vTo8qnF9Z05wEsDbjLGXZXfyow2lzNi1xLMjTOYToRWRLo9dQiqh78rDqzFlEdaYZvBTG+NeVGlf/2CWru1w/uL3eHATdZC+uvp0TEI1vSdSim9Sk3I4kAeGtCE1V7LxwZY61wk/JSd4va+1g5Xp0c9eaXLyK4/34iGChX138au22+4VsudlB/6mxI3+M0aLb3R6PK5d5duscall9omepGTAS0jID8fK81NurNg+6XEJbdfzsVY1X3rEweNdGwEtfxJr1eDoXxEtNF+O1BOV165Wpp++/tlBpWd8ywyEeWrSVmxQEIx/q9tXRUuVxt/e29Ybe/AD30j9VcwP3CJgbIkFTdF3LbRkutGRPxVqLubK+VqqXdjZdqgiyYvs35qjGdtlZ81VEZ38MMA41v3u+v94h43mycumQ9esmFBKXPjT8f5g33dgB113fEIq2CHGrOurDNwFpDevfgwYN3UKg5EtLD7AOibwnjMlKMwFBAvBx0iStlrkDZOT4jo04iLVXsnnoRDfBz4/udvPO3+7Mv1mZ6Ro1kheluMSsGWTGKLMv0k6wloGZ/w3CaO6Jl8LYrUdXV7K5QZ5NhyJLhB6NSINef76rH8UZpGuXWy3NSqo1YW6b7bHNCg2iY8+KBhucMPcrcKs91s4+JXrRJZcTk9Y7iSnOdAcEFwVJ1ZiIDAKPpaZ3uJsO0J1Wy5ABbHVoyBaoGD5CkNgZbqK53U7kWyL6OrXlOgXx3NQnBgNJlPddimpN7AzVlELqjmcq+bqnhUMXwgWQEW5tMpdAdgPocx6/H2zkBlVovZ7gpvJ/KgI2gvIyntEeIAfBHL7J2u6IOL8P6mAda264khT40a6jzWzp7tV+gqV87hfZFxm76rD1LBr499aZC5MFLfa3Lahh7NUOH2dpgIxpdhD5ZgjNuww4u4m1/NsiHuZRz9aAdNEOUE5Ls4uw1t0HcyZx2dSzyapC6N7KkN6iolKiZlp5tk7YuBDJQZlJrhfa1E+uvC49zJZrSDwZAvhlAbUJIKM6cwpmtFTqZoxI3QC00jcEnZExeFWKR7Dd4fllDS8I/OpVPBO/tWmHAzXuhpUrCMBnixU42bXFkstjauGfj0Tc8VXKjcb2rYTUWgGmPiOHUi1Ly+khU59Uxiu5NJLaq//qPQSDAyYalQyE1UELc3wU8HmggRTg+PTw8PPMHYpTIKhHUzlQcIS/HEJmVgUMpO4/pqHcwlwiQ9Tl1jGqYhOmj7MebU10fMyxiiF0iAqffAVNL1Q0Fa9/Z2dhtlVq7Gzsn2ZtIb5CQwwgmvJsaUdeh1WW66cKqPzvd3yajegd7L6xp+1Wz8Hw6Rrx166DUD9Nbez8bvGOOe748CcWWuzC7d0Nys3mx0tt1Moii2lp/mno+Nb1rUJs13mjBSS5ZKw5xMWl+RDm5tTsY1dt4PR21cn1jOX+wn+9skDC99WbvVKexg1CZNCxQD3GAadOAx2Q9Mix+2Bul3aqtu0SLG7qUuTUSHql4P+CBh9OgzAbKu9Xy0C6Uq7uHucAemnOaU1ME/87rX16fhB6v0T43LzZGWqIm0ahAbviB5RhLDG0YA+FkjrHcewFdH5HAgy4fzoWDsSHR3nyoLi9tLjEd7/FkjrG8m+fUOPG8OkZsvVbLfJzUKiM9GqwDxZKyX1lFsDa3SEQmAPQgn6em3A9ed7IhfSKIQxuoyLVxhOzIP8nlqdfzBZKGOfdJtbpOnyJy/Uwuynh2Itqi4WfHKah1rKbrRoxTfYWCdJuK7WxBaFnC/jRX6yi9yIvDU6fd9bmDQPcZUDCmzxcF4UhAGtEnS5vd5eTngnrZ81SiONtgHl08KOvobWhWKq/7BfWybTj9vxO5BuEnnuEfRpgFoD6RlNcee6BKDBuCh2pAKKq5ZuEuMjPVojUVpZ92NFY69sya67uC+pyszjs1jbcyGxPpoTquN+HgxsNz6vZ98QLbcvthBuoyTCVERXX7culpkXmvW/58+o5DeGZ636y+Mh5LacMszgzuB6bQO276E3e2LIn+lNQlauy70jeX537UsDWnjtEAoUWVSuiOtzRz+tB7KeYPQU8j8Ix2g/5wdSugf2thW6fqy7TdK7BjOH9efcc+UmlQPaQtj8QycpWNPAetNOSgsZiaekGtKUFq83VYYTqWB67IQYMJ9R3nd7PJgYBTz1g0o35In8jEEAeWH9qeUcRjPBx4w2JCJEtd89SWOaqUGOl6KOQxnsyMxGziO7Lh/BZlw82+n4iCLOJOtbeR+kNM8n43z4V1h2N9X8xShijR6oE2KGl/yHNhqxsVK/RmFMw802bNubVqoh6H/V8VizpGjs6mzjFVuqZo5PnUd0fHrShJs+8j2IE0eJnj+Xd5PvWZ3fAt3ReUIil5OuxuzmmcJsahGAwWODEsikz+kgWo05oO0aG1n6Ysd3njOY3LMnDxMJiAWzZgkSeEvpssH7+d5uSv0iWieJGuYjuf9gV2hWHmZRF9eOTj7/Cr+9lfWkI2iTCq95CYFdpYtQyZ72S37P060aFRPXiNyDLrnzUk4WCQG5BineWkdGsyJvvqVm9i1Pawr0M2cKzDyfXSsJbJis3ySuzE/d087v/j6b2N9YP1vbtnlJdgmOnykQYRASsHzLIvUDKi3aX2iUN+89f1sbTb+n+G5OWaodL8ELSAEGRZViFAvgtYj7Jj2jKon4xRlaqtjefjob2i+WbiN+TBc6kpfoXSjnwiv/8a3N/hs89i3b4/HLSKtWjTF+znGJXMoUYh1itYzVZFQ6OCcDcZu3G2vzYgru3f8TNvksijERInge1LN7CzHKPbYToCEFz11eGQ7nZwL5dkpLlx3QozSoVhAF6QKswyevZgdXfUlHbJVrbrxH8fjVrFyIN9P/TVBB0pDtWjOAJelmdmAYKUHl3hgeyfZj2KL0+hQrylbNVoapdqaaTSHWPrZEXKlQSihIGavsVAID4+3E97FF/eKexRZJFtNfUI1YHGQHrCk2A9fjpxfw9ufKt9/+NueaRAy+WNO30XhfWSdoAFhfUCeVjrkMlyYDL9ycrOcaAGxzbl7/FSFo95qu/SOmJENodCk9tZraPdDsiO2RLpDn11olJq0kxKKac0sKlDZ4VJ6/nO03EKWLm0cXbDyez7h5NZm3I1a/pCUVOFJnWC+P5ua4bpALGywnTyNphPE4v12Ab1KDZYjsT4EQYyVm0gmFo71dX6palCrBdSnpKJgDLVylYu7x9fw7SvgL/sTzspvUNbDPWmT9SBRtzjdDlQKDotJdYlyWeKmMF11QD9QEOR9IZjeYEHs5prwxRZ2FliwivcV2YBN71XufsrPb3RLOSHw91cALFdsaCWqZXIYj19sGBkjBXFklihUxgLoMDBcFC3l1yzbbqDun3oCrqRbF2BvqBYtBmku+w+yN/fxo3S1L+/V8BsuDOcCqcb1qj5kPd13eeJsi4ujmrL+vB3ttFlmiOJ4C0HWO0r3JcXGYKIZMUpur//uUlN9CSfDCu3xlo0xMq48lC6y+Qte0YkYJjBMGUh+91KJRxYK0VPIMBXkdAAUdH9nceRu3YUcdDKYwwrVAlGElKCyCBqWw0LL+WoyOh7igoMdCzGbp+DVnd93oLmVXbZAFI+ZVIq37vJiP+76fpDaZKDZoVWOPgdmcRcCabQTYpWuUYLaZCm3lhDD1ETAQOLlqtRpWuJHtxaYa7Q1DrwBQrv70YlVPCMyCoeGgsn4NGA/NQnBAvEchf0RYtpOpLFsCZQLiz0U9IVa1sSgpaipizG+PKtUpoaSKEg14vWUOneTe6yQg7az3rUSLM6iEZoTqaJxNSSIxt3hjTP+7cdx7md+riynklNUU2scSmdip6gypEYZbmigXaSMj3ps/9wv+E49u0LlC0HGWZlqVNp7+dKSOW1mU3HnwL3izhorhBi4vZqvJ/ui5RvjzL2vBCnvl9Ifr39+O2th6sPbx0+uQ34PiefWLuKQXmL2YaiyVyvjXU7YQyRcvKJ8Xx3994+GXXHP19GqEn/n7Z9mHuC1RtusD7Zzm30f4a0BC2GbrfrC2IdKIkGxEEltO5J7SWmwsmPj7bXWuVqubW2ffQkIzDWjTisiaYA7H6CyNMVsS0QR2qF8q9FS390ene916rSUXu/hjMmWhNtP1CJQ7QiKeAkp4iq++FNCGYI4e7UIqr+a0Ayq6uRIbk6dkLdCVLVxNspc0Hz41dnq60sniT/9vb/l0bcDStNonmm5g4UmS8RTxtoOg12yVW/PdooDUZVd+8d50XEIgO7lm+IXMSkMbDw23Sx/+D5zZZB2OP98vgtVN/8faCHpZTyQx6ovtWB2bHaat/B1n7ZHtMP5dLeOwVh3FfpdmeYkfW6mPaXpTtT5R+9Xa+ORlVbU8d+1OUGdUltlLIEzbR6yyF9UhOVe0c3zQmV9bGmL6oGzX5+SDD7z4p14nbbwtAhJopJy0Psk9XJ227tn7hDinF90+rTFHlsYtr/afiWHldenW5PTfbusNZU1wwf69gQ631/XTFqgPNCvRtP3d+9m2+NVdSd3qBVrPrmAeSdhC5vVh08KyHxBFX0HKmp0kYxnwPC0ZT+LK89HRX4oe/3F4fkyu7At+KVfzycskvlXXoCOk2jWHHgO94k/dOTTJppcWr6Tq/av7/ywdPPwQdl4fu9AyqktfV/pokyL45YmkzNYNPaF0yLPXKQJpy9vPosbw9zEmLMsTh90EasAEEdVoOe5hkj+6HoSGaMG3lurJymqRmVA2xE769aLa2tv/xc7CJkPD49Onr7TnIyEyy7vt3MNA4bppuurtM1Ymf8oeaDfEVxbZDY4rBDWUcGJZoj+mfcDLOK4q3SNKrry7SRbUbaSDQHzUTIOJ64v8+BtOlrdBgtK2318/iw33LhkaBCjGMXEkUaFriZrUGoIugpHT/QtKyvQ65sMss02fQkX+0vrz2Y7fzVLN9l+h2l0/c3BzDiLNiAwWAKPuaV/hOM9grCyX0bsASKnv4EWjN20hcApCWLLbdRxGwov51puVHgg2hpbjti5KbnEU+GheZwBtygT3MWO+ZPFYruUiXDClNpp78sb6W9d9YV2DGAWlJa9M99b8bcgKoRRZfw+AnraMjkLVxDGcNKGZCMcOgMKvkkfmhDBVhFa6iQYQXSTj9w3gnanxt2Ss2UK90JyxEOkmnObD0kheknOF9iWT/j0xidbsq1L9RDxYULXtLndnulkFPtXMcYBuMiqls4PXLJM2baMrHfshC6NXqBlE9reEIq8NsFtuzguMiO0YT4J5/kHwJN7gDWsnggtMdp86jDLBFstpMCf4iqDM7NvEw7S8fyZpgNlNJA5tecP1T9vajdHukFDNm5QkoXrrlpiVBU4ZgzZ3doJX3LEd5Oe8e9H2mptpHtQ03tayyUFtxYXkg0G2J1MgKkCy8pUENCMO+nFCh0a2XFMUC5MWNtuuLyJsMskXWCVycmS8+eNAID6X3G8DCLK5IAhpfaabd91/tpMmFY7uUbO2ijw/zyzvqgX4Sh6MPwh436VR3ZcfWwwqTaW34+FdsTvSPDtpp+Th0LvoVYBMhfzhr0tbODsdi+3Po9b8zr807xJBBdhXhrcGRnWdt0OF7wLV/gObefoxbvrPaGJ+f29tOkiKi62COu8ETC3jEVwPsrzArVLY2zjVY2qlwuv/ktr4+Jjp77E4lYywZInaxKiHEQWA36bHkp6GtRGR8e9Eo05u6tH0ppil4KuUYArSnWGHQFF1eYzazTI7h30KKjWr3/ex/mhCEGc3sKyIf7z4zQeKakLc/ywARlqNlSEA+OVajX9YEDILg/vVzdW3353MrUjqdSC9/cDCcniTpbDdBOjL4zZehn+2TUDyrOR2RCPK9NLx++Pb21v7ext3/4ONTrNNwYoq7hwBfqXBgMXDhvFIjIgmM4wiDPlooudLVo/Lwv2Q8Msu2INvIH6xI1yCgtXxjiotnfavaZ8eiULn2aROttH7na2HeWIcN1+wmH0fONqJXLR9k2zSdpNDIRLdyfat0ISLgh6wbKzr3gzinj1CV9Xt3ER0cj9Vld2++E/ddrNnb9UUezF0TZ0uBcEr0b0zpEodxZL7PzaR2RfFBwpVRUYvo1aMQPtS0wC8iS5ldAB+MctNJqWoHgPaha9oThla2+MhJdWexMT4ee+4GGHNga8Y7I/hzIN6Xoa4nWjGcpYs+M5jVKrZ9uT3G87kWgHgYqzPklHOwfMeRgzEy1oyJi1Ov6mAJDS4w62op2rIm4Ullpz1gnwhwfiPbtznQAsfaL3oReoVtCPCMW2KEdrzBToRM2SGAbDUVCicNja4gsMTMt1nYLFREP59iP/nA6fVx5ufRw9nFAGgnTJHpaFxNM6GrBqgNp2DY3rYco/HbaUl7UCT3f3WSPbuXr4rsns/1aGUuQoS117YnP6DYIh9k2NG7L0vO+eBy0s3PQChweWb369wbfIF4VcLx6v52TvuKkJaZLT6nwBv5Q6mZydtxfBzIMJv0h+tdyl5a+NpcpJWLKH9Ka4bz60Sku4qBNQ/RNshIw0hlDc892iHe8c2bZqqLFmVT5SJ0iLCBMXMmkE8Ithomw9Ew/fLi6t//yuZSpJCOZVz+6j0KO18OZelPGaa/Fkgai/3273qNV2lZv/cgVMs4111ALDj71LGmZSeSa1NWFn25l0Vyrt/ELESU7zzo6Ay7goPWOsIDqXGFxipUb0NxiApTG9kPuRzc1bR7GhfOVVSJVlwPo5HAstt99eYwwnmMdneFVwdcmrJ1hS1UtKCB5SmXzqdTqoqG/n8oPndD8kGsXahQ7Y2VBcPtwMj+086d57xonuP0iX7Y4IKablW1oqYHrhw005vgNHvlxUY4xn81IUQ8l16wQTW1M5Riru0/nPd9KwL7LK6LfB1E4K3t2JAWJKhmeTGkrSqeT6uHG9AEV5bUfz80NcgrytJNpTmK1ME89b7CnHaLqm+eTji/LIcd3dVcKbVFnGFopKuJ+zCyPDjdSAfdj9eJvG/rs4B/vTW6Y1g+Fd614dihh6vd1oHB6Dvcjhwhm+/TRpetlcwbx+XppIr0uzbxp1kv5dp3kPO5HDtpmF9Ojlq9Qc50zoPer9GyyUpYfevHd7JCDj5mlRDJQ0akW5ZnfaAJoH1RgcPgqdfv5gnJ8uL1Lib+93d+fG+dwdBrQSwmf53E/8mhnRE/zr7k+qC/nW3FYzb/zcmdn59SKLsV2P48/VADaKqaGilUU4HwZa4hC9jRBEy9ZqzqH+1EAbbNjzdJDvS9CD10d4pVsGfTFL9uWfQyu5A8NF2YRF/YLcKo/Clrep/714hj9VY5P/UX41B8F9jjHyb8EU145m+bkv/1al1AB9+NS30N2+3Cyr+Ph/BI5/zjQ84neoOByPXHPHkz0Bs0/z+OPQD4+Wh/0lz2VLpuKF+/c7ecY1/Z+mdVf9tXAw2e02/DeHekqiVTHOtwho14+L/6eqq8MsuA4Q+7HZcEi2ueqfZ2e4gILLLDAAgsssMACCyywwAILLLDAAgt86fh/+mLEky2UcgQAAAAASUVORK5CYII=;clipPath=inset(22.99% 16.78% 7.47% 13.32%);" vertex="1" parent="1">
          <mxGeometry x="940" y="150" width="140" height="83.86138613861387" as="geometry" />
        </mxCell>
        <mxCell id="mevsjaY-M4el7qakor53-21" value="" style="edgeStyle=orthogonalEdgeStyle;rounded=0;orthogonalLoop=1;jettySize=auto;html=1;" edge="1" parent="1" source="mevsjaY-M4el7qakor53-12" target="mevsjaY-M4el7qakor53-20">
          <mxGeometry relative="1" as="geometry" />
        </mxCell>
        <mxCell id="mevsjaY-M4el7qakor53-12" value="Human Voice Identifier" style="shape=image;verticalLabelPosition=bottom;labelBackgroundColor=default;verticalAlign=top;aspect=fixed;imageAspect=0;image=data:image/png,iVBORw0KGgoAAAANSUhEUgAAASEAAACuCAMAAABOUkuQAAABVlBMVEX/////zAAAAAD/zgD6+vr5+fn29vbJyclDQ0P/0ADx8fHb29uQkJDo6Oju7u7z8/NoaGjQ0NBycnKysrJhYWGgoKDh4eGIiIh+fn7CwsK6urp5eXnW1taWlpZsbGzExMSrq6ulpaVYWFhiYmL4xgBLS0sYGBgrKys+Pj5TU1MNDQ01NTWjgQDxwQDqugDJnwC1kAAnJyceHh7AmAB7YgDV0seHbADhswCohACWdwBfY2uspIHWqwBwalVzWgCAZwBtYTBmUgbl4tVnWzKBhY2RcQCLioMkKTXPybO/uJuHg3Ht582AfG2VkX5kUxSBdD69u691aD1uZkernm1iX1V7aCWGbx6ppZZUWGJeRwBqZVBMRi/CoyteVjvbtR1rWhdGPBKTh10lIQ96c1ZYTzNWUUH/++pbTR4uJwCalH3HvJCDeFCVgzfOrCVNSTd8bS+bhSuxlzCNmKhsAAAbd0lEQVR4nO1dWWPTSLYuy1psa7G2qtJuSbbjKI6zQpbuAAk0GZoJNMmwTHcPMHNp6LvM3O77/19uleRdchY6BMP4eyCJ7RKqo6qzfqcMwAILLLDAAgsssMACCyywwAILLLDAAgsssMACCyywwAILLLDAAl8kajL5R5E/921cB9gZr3MfcS3HAWzkQSoXQeIBMPyJqyt+7apXrMv87DfZWfd+rTDw9CscSn8k4tUvJvmADRp2DcgCtHgkSJgFgsYCJAv0onJCZIcaIkAKnbqgkb+QB7zGLMGxkanHTvZ7HY2/I1LhhNJNiMhwge3gCDiGGwHFYEXHX7LoGxUioYbrs5oNZKcmYQUYBrxgYfm67cSNWKw3sep6iRRjNtRVB8SxrpLJyLEMuMhv1yEGMIJurNXbpmHrEZpxPa2iALQshwof1aQtSTOwVAeRUg/DLV0BAJIHADyMUSgDQ+ahheTQb1yzgKiEcNuoKGQibU82ORs7iUDfoBISRFUQEhBBCHHENZvaBRfzE4yXiYS8JnCs0AIRrschdkFsyCbKJARkFAuiWWtqcWhJtdgGTtObdb2ILHCWilxpK47pwSQ0Q5AgOREShx1ISPN93VFM2cAQC91IuVbxgExCEDQ91wCWITe5BtaCdNFTCYlOHPKxpwtNS7d41bnoYpLP1gM7Fh0d2JbvkxnKFQwdYGo1VaQSUoBsRe0G72JLrEhQqBHp8FEszLge1FMJmWKtXRNcDvogdImElESkAs8khBwXG5aBWSuw4oZev07hpKASMoDquQ5wHSIhA2tq+r9UEFBMQY8ATDCKQySz6qyJDEH0EBfYiYgqmqU7iadavO7LCog1xaQSamuynXiJAQzGZtVIUWqxR1QR2eTFELoyUJZRLCIiIZ2FkK6qRBTbmYTSJWYZECNTtYEuiUhwz1HsH4lQB1ZIpuDqYSIrsVSxUJzecEcKw0oUuxxiHACJuuDNC7e4Y1Nb5susr/qGLOm+AxQ3gAAinhq4mhWoEXnVZz2iYEQ3MOjLdiDNcgp4HRuqBAI3WFbE2IliutxUS60glZpK2I5CpGM94a0KC5wkchr69UtIJpZFBh7n+g5RB54jItaz6RuC42ieoQmsnCDANgwNeFe21TNhSJf7XN0OBWIKHc9jgUbsozP4CzlkocuO49SQozU4sqOJXjcE5SMM8GXhz9xCgn/9/xv6KFcyNGa8wUmfUDIDKDOXZ/36ls4fRH2WGmaVG/EdF1hggQUWWODfG/z3j9Vv1MePrpZW+vO3J+o3wZPbX7+xlp8c7Wzvru1u33v65PLu0/0fjh6u764dbNx6YFx/tDBXeHa6ulYqlcvlUml3/+z25QZ9+PbtRq8/6mDn5Aa84s+HZ2/X03mW6HxL678+u8wg7i+3dqvZoFK52tq4MyuN9hVA+3G3P9NstgcPLrMevr27Vh0bVd54/tVutPrZ+thUCaobdy7WvLePxsVKRFTav2S8/+Xh1c6kgErl1r1ZQfgIP2zkRj2YmY39ssHfOZiaa6l8cDLr046X7aU/H/XK06M2ZqUav3BoL/Jz7f02S+0aHd2mufbvH04PInJ9/HVqonB1eqpEp+zMqoqwKsMkkQKOt/MSah1ee51iLgA3cnMtVfd9TSiE5i8xDLOCg4OCUUdfRRE7BzitculcV7/xpUL4bSKgJdf+d5CQpmNoI4WHe7mplkoPZ2W9lQqzLIkcOF7PS6h1+HVJiPPpdum2k5etvKZ+MctnhHEkU2fp1WpeD+2ezE1G/AKQgNv8q/n4ooBbMYmImIpzZy0nod1gllUS+2+go9L0qOr6JyiqfArc/uHHh+trrbXtW0/hzGeKBBjELlG6ugL8vWnfr7R/4VzZ1+vTo8qnF9Z05wEsDbjLGXZXfyow2lzNi1xLMjTOYToRWRLo9dQiqh78rDqzFlEdaYZvBTG+NeVGlf/2CWru1w/uL3eHATdZC+uvp0TEI1vSdSim9Sk3I4kAeGtCE1V7LxwZY61wk/JSd4va+1g5Xp0c9eaXLyK4/34iGChX138au22+4VsudlB/6mxI3+M0aLb3R6PK5d5duscall9omepGTAS0jID8fK81NurNg+6XEJbdfzsVY1X3rEweNdGwEtfxJr1eDoXxEtNF+O1BOV165Wpp++/tlBpWd8ywyEeWrSVmxQEIx/q9tXRUuVxt/e29Ybe/AD30j9VcwP3CJgbIkFTdF3LbRkutGRPxVqLubK+VqqXdjZdqgiyYvs35qjGdtlZ81VEZ38MMA41v3u+v94h43mycumQ9esmFBKXPjT8f5g33dgB113fEIq2CHGrOurDNwFpDevfgwYN3UKg5EtLD7AOibwnjMlKMwFBAvBx0iStlrkDZOT4jo04iLVXsnnoRDfBz4/udvPO3+7Mv1mZ6Ro1kheluMSsGWTGKLMv0k6wloGZ/w3CaO6Jl8LYrUdXV7K5QZ5NhyJLhB6NSINef76rH8UZpGuXWy3NSqo1YW6b7bHNCg2iY8+KBhucMPcrcKs91s4+JXrRJZcTk9Y7iSnOdAcEFwVJ1ZiIDAKPpaZ3uJsO0J1Wy5ABbHVoyBaoGD5CkNgZbqK53U7kWyL6OrXlOgXx3NQnBgNJlPddimpN7AzVlELqjmcq+bqnhUMXwgWQEW5tMpdAdgPocx6/H2zkBlVovZ7gpvJ/KgI2gvIyntEeIAfBHL7J2u6IOL8P6mAda264khT40a6jzWzp7tV+gqV87hfZFxm76rD1LBr499aZC5MFLfa3Lahh7NUOH2dpgIxpdhD5ZgjNuww4u4m1/NsiHuZRz9aAdNEOUE5Ls4uw1t0HcyZx2dSzyapC6N7KkN6iolKiZlp5tk7YuBDJQZlJrhfa1E+uvC49zJZrSDwZAvhlAbUJIKM6cwpmtFTqZoxI3QC00jcEnZExeFWKR7Dd4fllDS8I/OpVPBO/tWmHAzXuhpUrCMBnixU42bXFkstjauGfj0Tc8VXKjcb2rYTUWgGmPiOHUi1Ly+khU59Uxiu5NJLaq//qPQSDAyYalQyE1UELc3wU8HmggRTg+PTw8PPMHYpTIKhHUzlQcIS/HEJmVgUMpO4/pqHcwlwiQ9Tl1jGqYhOmj7MebU10fMyxiiF0iAqffAVNL1Q0Fa9/Z2dhtlVq7Gzsn2ZtIb5CQwwgmvJsaUdeh1WW66cKqPzvd3yajegd7L6xp+1Wz8Hw6Rrx166DUD9Nbez8bvGOOe748CcWWuzC7d0Nys3mx0tt1Moii2lp/mno+Nb1rUJs13mjBSS5ZKw5xMWl+RDm5tTsY1dt4PR21cn1jOX+wn+9skDC99WbvVKexg1CZNCxQD3GAadOAx2Q9Mix+2Bul3aqtu0SLG7qUuTUSHql4P+CBh9OgzAbKu9Xy0C6Uq7uHucAemnOaU1ME/87rX16fhB6v0T43LzZGWqIm0ahAbviB5RhLDG0YA+FkjrHcewFdH5HAgy4fzoWDsSHR3nyoLi9tLjEd7/FkjrG8m+fUOPG8OkZsvVbLfJzUKiM9GqwDxZKyX1lFsDa3SEQmAPQgn6em3A9ed7IhfSKIQxuoyLVxhOzIP8nlqdfzBZKGOfdJtbpOnyJy/Uwuynh2Itqi4WfHKah1rKbrRoxTfYWCdJuK7WxBaFnC/jRX6yi9yIvDU6fd9bmDQPcZUDCmzxcF4UhAGtEnS5vd5eTngnrZ81SiONtgHl08KOvobWhWKq/7BfWybTj9vxO5BuEnnuEfRpgFoD6RlNcee6BKDBuCh2pAKKq5ZuEuMjPVojUVpZ92NFY69sya67uC+pyszjs1jbcyGxPpoTquN+HgxsNz6vZ98QLbcvthBuoyTCVERXX7culpkXmvW/58+o5DeGZ636y+Mh5LacMszgzuB6bQO276E3e2LIn+lNQlauy70jeX537UsDWnjtEAoUWVSuiOtzRz+tB7KeYPQU8j8Ix2g/5wdSugf2thW6fqy7TdK7BjOH9efcc+UmlQPaQtj8QycpWNPAetNOSgsZiaekGtKUFq83VYYTqWB67IQYMJ9R3nd7PJgYBTz1g0o35In8jEEAeWH9qeUcRjPBx4w2JCJEtd89SWOaqUGOl6KOQxnsyMxGziO7Lh/BZlw82+n4iCLOJOtbeR+kNM8n43z4V1h2N9X8xShijR6oE2KGl/yHNhqxsVK/RmFMw802bNubVqoh6H/V8VizpGjs6mzjFVuqZo5PnUd0fHrShJs+8j2IE0eJnj+Xd5PvWZ3fAt3ReUIil5OuxuzmmcJsahGAwWODEsikz+kgWo05oO0aG1n6Ysd3njOY3LMnDxMJiAWzZgkSeEvpssH7+d5uSv0iWieJGuYjuf9gV2hWHmZRF9eOTj7/Cr+9lfWkI2iTCq95CYFdpYtQyZ72S37P060aFRPXiNyDLrnzUk4WCQG5BineWkdGsyJvvqVm9i1Pawr0M2cKzDyfXSsJbJis3ySuzE/d087v/j6b2N9YP1vbtnlJdgmOnykQYRASsHzLIvUDKi3aX2iUN+89f1sbTb+n+G5OWaodL8ELSAEGRZViFAvgtYj7Jj2jKon4xRlaqtjefjob2i+WbiN+TBc6kpfoXSjnwiv/8a3N/hs89i3b4/HLSKtWjTF+znGJXMoUYh1itYzVZFQ6OCcDcZu3G2vzYgru3f8TNvksijERInge1LN7CzHKPbYToCEFz11eGQ7nZwL5dkpLlx3QozSoVhAF6QKswyevZgdXfUlHbJVrbrxH8fjVrFyIN9P/TVBB0pDtWjOAJelmdmAYKUHl3hgeyfZj2KL0+hQrylbNVoapdqaaTSHWPrZEXKlQSihIGavsVAID4+3E97FF/eKexRZJFtNfUI1YHGQHrCk2A9fjpxfw9ufKt9/+NueaRAy+WNO30XhfWSdoAFhfUCeVjrkMlyYDL9ycrOcaAGxzbl7/FSFo95qu/SOmJENodCk9tZraPdDsiO2RLpDn11olJq0kxKKac0sKlDZ4VJ6/nO03EKWLm0cXbDyez7h5NZm3I1a/pCUVOFJnWC+P5ua4bpALGywnTyNphPE4v12Ab1KDZYjsT4EQYyVm0gmFo71dX6palCrBdSnpKJgDLVylYu7x9fw7SvgL/sTzspvUNbDPWmT9SBRtzjdDlQKDotJdYlyWeKmMF11QD9QEOR9IZjeYEHs5prwxRZ2FliwivcV2YBN71XufsrPb3RLOSHw91cALFdsaCWqZXIYj19sGBkjBXFklihUxgLoMDBcFC3l1yzbbqDun3oCrqRbF2BvqBYtBmku+w+yN/fxo3S1L+/V8BsuDOcCqcb1qj5kPd13eeJsi4ujmrL+vB3ttFlmiOJ4C0HWO0r3JcXGYKIZMUpur//uUlN9CSfDCu3xlo0xMq48lC6y+Qte0YkYJjBMGUh+91KJRxYK0VPIMBXkdAAUdH9nceRu3YUcdDKYwwrVAlGElKCyCBqWw0LL+WoyOh7igoMdCzGbp+DVnd93oLmVXbZAFI+ZVIq37vJiP+76fpDaZKDZoVWOPgdmcRcCabQTYpWuUYLaZCm3lhDD1ETAQOLlqtRpWuJHtxaYa7Q1DrwBQrv70YlVPCMyCoeGgsn4NGA/NQnBAvEchf0RYtpOpLFsCZQLiz0U9IVa1sSgpaipizG+PKtUpoaSKEg14vWUOneTe6yQg7az3rUSLM6iEZoTqaJxNSSIxt3hjTP+7cdx7md+riynklNUU2scSmdip6gypEYZbmigXaSMj3ps/9wv+E49u0LlC0HGWZlqVNp7+dKSOW1mU3HnwL3izhorhBi4vZqvJ/ui5RvjzL2vBCnvl9Ifr39+O2th6sPbx0+uQ34PiefWLuKQXmL2YaiyVyvjXU7YQyRcvKJ8Xx3994+GXXHP19GqEn/n7Z9mHuC1RtusD7Zzm30f4a0BC2GbrfrC2IdKIkGxEEltO5J7SWmwsmPj7bXWuVqubW2ffQkIzDWjTisiaYA7H6CyNMVsS0QR2qF8q9FS390ene916rSUXu/hjMmWhNtP1CJQ7QiKeAkp4iq++FNCGYI4e7UIqr+a0Ayq6uRIbk6dkLdCVLVxNspc0Hz41dnq60sniT/9vb/l0bcDStNonmm5g4UmS8RTxtoOg12yVW/PdooDUZVd+8d50XEIgO7lm+IXMSkMbDw23Sx/+D5zZZB2OP98vgtVN/8faCHpZTyQx6ovtWB2bHaat/B1n7ZHtMP5dLeOwVh3FfpdmeYkfW6mPaXpTtT5R+9Xa+ORlVbU8d+1OUGdUltlLIEzbR6yyF9UhOVe0c3zQmV9bGmL6oGzX5+SDD7z4p14nbbwtAhJopJy0Psk9XJ227tn7hDinF90+rTFHlsYtr/afiWHldenW5PTfbusNZU1wwf69gQ631/XTFqgPNCvRtP3d+9m2+NVdSd3qBVrPrmAeSdhC5vVh08KyHxBFX0HKmp0kYxnwPC0ZT+LK89HRX4oe/3F4fkyu7At+KVfzycskvlXXoCOk2jWHHgO94k/dOTTJppcWr6Tq/av7/ywdPPwQdl4fu9AyqktfV/pokyL45YmkzNYNPaF0yLPXKQJpy9vPosbw9zEmLMsTh90EasAEEdVoOe5hkj+6HoSGaMG3lurJymqRmVA2xE769aLa2tv/xc7CJkPD49Onr7TnIyEyy7vt3MNA4bppuurtM1Ymf8oeaDfEVxbZDY4rBDWUcGJZoj+mfcDLOK4q3SNKrry7SRbUbaSDQHzUTIOJ64v8+BtOlrdBgtK2318/iw33LhkaBCjGMXEkUaFriZrUGoIugpHT/QtKyvQ65sMss02fQkX+0vrz2Y7fzVLN9l+h2l0/c3BzDiLNiAwWAKPuaV/hOM9grCyX0bsASKnv4EWjN20hcApCWLLbdRxGwov51puVHgg2hpbjti5KbnEU+GheZwBtygT3MWO+ZPFYruUiXDClNpp78sb6W9d9YV2DGAWlJa9M99b8bcgKoRRZfw+AnraMjkLVxDGcNKGZCMcOgMKvkkfmhDBVhFa6iQYQXSTj9w3gnanxt2Ss2UK90JyxEOkmnObD0kheknOF9iWT/j0xidbsq1L9RDxYULXtLndnulkFPtXMcYBuMiqls4PXLJM2baMrHfshC6NXqBlE9reEIq8NsFtuzguMiO0YT4J5/kHwJN7gDWsnggtMdp86jDLBFstpMCf4iqDM7NvEw7S8fyZpgNlNJA5tecP1T9vajdHukFDNm5QkoXrrlpiVBU4ZgzZ3doJX3LEd5Oe8e9H2mptpHtQ03tayyUFtxYXkg0G2J1MgKkCy8pUENCMO+nFCh0a2XFMUC5MWNtuuLyJsMskXWCVycmS8+eNAID6X3G8DCLK5IAhpfaabd91/tpMmFY7uUbO2ijw/zyzvqgX4Sh6MPwh436VR3ZcfWwwqTaW34+FdsTvSPDtpp+Th0LvoVYBMhfzhr0tbODsdi+3Po9b8zr807xJBBdhXhrcGRnWdt0OF7wLV/gObefoxbvrPaGJ+f29tOkiKi62COu8ETC3jEVwPsrzArVLY2zjVY2qlwuv/ktr4+Jjp77E4lYywZInaxKiHEQWA36bHkp6GtRGR8e9Eo05u6tH0ppil4KuUYArSnWGHQFF1eYzazTI7h30KKjWr3/ex/mhCEGc3sKyIf7z4zQeKakLc/ywARlqNlSEA+OVajX9YEDILg/vVzdW3353MrUjqdSC9/cDCcniTpbDdBOjL4zZehn+2TUDyrOR2RCPK9NLx++Pb21v7ext3/4ONTrNNwYoq7hwBfqXBgMXDhvFIjIgmM4wiDPlooudLVo/Lwv2Q8Msu2INvIH6xI1yCgtXxjiotnfavaZ8eiULn2aROttH7na2HeWIcN1+wmH0fONqJXLR9k2zSdpNDIRLdyfat0ISLgh6wbKzr3gzinj1CV9Xt3ER0cj9Vld2++E/ddrNnb9UUezF0TZ0uBcEr0b0zpEodxZL7PzaR2RfFBwpVRUYvo1aMQPtS0wC8iS5ldAB+MctNJqWoHgPaha9oThla2+MhJdWexMT4ee+4GGHNga8Y7I/hzIN6Xoa4nWjGcpYs+M5jVKrZ9uT3G87kWgHgYqzPklHOwfMeRgzEy1oyJi1Ov6mAJDS4w62op2rIm4Ullpz1gnwhwfiPbtznQAsfaL3oReoVtCPCMW2KEdrzBToRM2SGAbDUVCicNja4gsMTMt1nYLFREP59iP/nA6fVx5ufRw9nFAGgnTJHpaFxNM6GrBqgNp2DY3rYco/HbaUl7UCT3f3WSPbuXr4rsns/1aGUuQoS117YnP6DYIh9k2NG7L0vO+eBy0s3PQChweWb369wbfIF4VcLx6v52TvuKkJaZLT6nwBv5Q6mZydtxfBzIMJv0h+tdyl5a+NpcpJWLKH9Ka4bz60Sku4qBNQ/RNshIw0hlDc892iHe8c2bZqqLFmVT5SJ0iLCBMXMmkE8Ithomw9Ew/fLi6t//yuZSpJCOZVz+6j0KO18OZelPGaa/Fkgai/3273qNV2lZv/cgVMs4111ALDj71LGmZSeSa1NWFn25l0Vyrt/ELESU7zzo6Ay7goPWOsIDqXGFxipUb0NxiApTG9kPuRzc1bR7GhfOVVSJVlwPo5HAstt99eYwwnmMdneFVwdcmrJ1hS1UtKCB5SmXzqdTqoqG/n8oPndD8kGsXahQ7Y2VBcPtwMj+086d57xonuP0iX7Y4IKablW1oqYHrhw005vgNHvlxUY4xn81IUQ8l16wQTW1M5Riru0/nPd9KwL7LK6LfB1E4K3t2JAWJKhmeTGkrSqeT6uHG9AEV5bUfz80NcgrytJNpTmK1ME89b7CnHaLqm+eTji/LIcd3dVcKbVFnGFopKuJ+zCyPDjdSAfdj9eJvG/rs4B/vTW6Y1g+Fd614dihh6vd1oHB6Dvcjhwhm+/TRpetlcwbx+XppIr0uzbxp1kv5dp3kPO5HDtpmF9Ojlq9Qc50zoPer9GyyUpYfevHd7JCDj5mlRDJQ0akW5ZnfaAJoH1RgcPgqdfv5gnJ8uL1Lib+93d+fG+dwdBrQSwmf53E/8mhnRE/zr7k+qC/nW3FYzb/zcmdn59SKLsV2P48/VADaKqaGilUU4HwZa4hC9jRBEy9ZqzqH+1EAbbNjzdJDvS9CD10d4pVsGfTFL9uWfQyu5A8NF2YRF/YLcKo/Clrep/714hj9VY5P/UX41B8F9jjHyb8EU145m+bkv/1al1AB9+NS30N2+3Cyr+Ph/BI5/zjQ84neoOByPXHPHkz0Bs0/z+OPQD4+Wh/0lz2VLpuKF+/c7ecY1/Z+mdVf9tXAw2e02/DeHekqiVTHOtwho14+L/6eqq8MsuA4Q+7HZcEi2ueqfZ2e4gILLLDAAgsssMACCyywwAILLLDAAgt86fh/+mLEky2UcgQAAAAASUVORK5CYII=;clipPath=inset(22.99% 16.78% 7.47% 13.32%);" vertex="1" parent="1">
          <mxGeometry x="320" y="216.14" width="140" height="83.86138613861387" as="geometry" />
        </mxCell>
        <mxCell id="mevsjaY-M4el7qakor53-26" style="edgeStyle=orthogonalEdgeStyle;rounded=0;orthogonalLoop=1;jettySize=auto;html=1;entryX=0;entryY=0.5;entryDx=0;entryDy=0;" edge="1" parent="1" target="mevsjaY-M4el7qakor53-12">
          <mxGeometry relative="1" as="geometry">
            <mxPoint x="431" y="390" as="sourcePoint" />
          </mxGeometry>
        </mxCell>
        <mxCell id="mevsjaY-M4el7qakor53-33" style="edgeStyle=orthogonalEdgeStyle;rounded=0;orthogonalLoop=1;jettySize=auto;html=1;entryX=0;entryY=0.75;entryDx=0;entryDy=0;" edge="1" parent="1" source="mevsjaY-M4el7qakor53-16" target="mevsjaY-M4el7qakor53-8">
          <mxGeometry relative="1" as="geometry">
            <Array as="points">
              <mxPoint x="720" y="430" />
              <mxPoint x="720" y="213" />
            </Array>
          </mxGeometry>
        </mxCell>
        <mxCell id="mevsjaY-M4el7qakor53-16" value="Audio Processor ( Raw Audio -&amp;gt; Features )" style="swimlane;childLayout=stackLayout;horizontal=1;fillColor=none;horizontalStack=1;resizeParent=1;resizeParentMax=0;resizeLast=0;collapsible=0;strokeColor=default;stackBorder=10;stackSpacing=-12;resizable=1;align=center;points=[];whiteSpace=wrap;html=1;" vertex="1" parent="1">
          <mxGeometry x="260" y="380" width="330" height="100" as="geometry" />
        </mxCell>
        <mxCell id="mevsjaY-M4el7qakor53-17" value="WaveForm" style="shape=step;perimeter=stepPerimeter;fixedSize=1;points=[];whiteSpace=wrap;html=1;" vertex="1" parent="mevsjaY-M4el7qakor53-16">
          <mxGeometry x="10" y="33" width="110" height="57" as="geometry" />
        </mxCell>
        <mxCell id="mevsjaY-M4el7qakor53-18" value="Spectogram" style="shape=step;perimeter=stepPerimeter;fixedSize=1;points=[];whiteSpace=wrap;html=1;" vertex="1" parent="mevsjaY-M4el7qakor53-16">
          <mxGeometry x="108" y="33" width="112" height="57" as="geometry" />
        </mxCell>
        <mxCell id="mevsjaY-M4el7qakor53-19" value="Step 3" style="shape=step;perimeter=stepPerimeter;fixedSize=1;points=[];whiteSpace=wrap;html=1;" vertex="1" parent="mevsjaY-M4el7qakor53-16">
          <mxGeometry x="208" y="33" width="112" height="57" as="geometry" />
        </mxCell>
        <mxCell id="mevsjaY-M4el7qakor53-31" value="" style="edgeStyle=orthogonalEdgeStyle;rounded=0;orthogonalLoop=1;jettySize=auto;html=1;" edge="1" parent="1" source="mevsjaY-M4el7qakor53-20" target="mevsjaY-M4el7qakor53-30">
          <mxGeometry relative="1" as="geometry" />
        </mxCell>
        <mxCell id="mevsjaY-M4el7qakor53-20" value="Clip Recorded Audio" style="whiteSpace=wrap;html=1;verticalAlign=top;labelBackgroundColor=default;" vertex="1" parent="1">
          <mxGeometry x="510" y="228.07" width="70" height="60" as="geometry" />
        </mxCell>
        <mxCell id="mevsjaY-M4el7qakor53-30" value="Audio Files without&lt;div&gt;&amp;nbsp;Human Voice&lt;/div&gt;" style="sketch=0;pointerEvents=1;shadow=0;dashed=0;html=1;strokeColor=none;fillColor=#005F4B;labelPosition=center;verticalLabelPosition=bottom;verticalAlign=top;align=center;outlineConnect=0;shape=mxgraph.veeam2.audio_file;" vertex="1" parent="1">
          <mxGeometry x="640" y="320" width="28.000000000000004" height="39" as="geometry" />
        </mxCell>
        <mxCell id="mevsjaY-M4el7qakor53-32" style="edgeStyle=orthogonalEdgeStyle;rounded=0;orthogonalLoop=1;jettySize=auto;html=1;entryX=0.903;entryY=-0.006;entryDx=0;entryDy=0;entryPerimeter=0;" edge="1" parent="1" source="mevsjaY-M4el7qakor53-30" target="mevsjaY-M4el7qakor53-16">
          <mxGeometry relative="1" as="geometry">
            <Array as="points">
              <mxPoint x="558" y="340" />
            </Array>
          </mxGeometry>
        </mxCell>
      </root>
    </mxGraphModel>
  </diagram>
</mxfile>
